<svg width="90" height="90" viewBox="0 0 90 90" fill="none" xmlns="http://www.w3.org/2000/svg">
<g clip-path="url(#clip0)">
<path d="M77.682 49.551C76.3035 47.958 74.7516 46.3519 73.052 44.7501C74.7516 43.1483 76.3035 41.5422 77.682 39.9492C80.5548 36.6293 82.5507 33.5149 83.6141 30.6924C84.8437 27.4289 84.8069 24.6305 83.5048 22.375C82.2027 20.1196 79.7977 18.6885 76.3566 18.1216C73.3802 17.6313 69.6852 17.8025 65.3739 18.6306C63.305 19.0279 61.1381 19.5687 58.9011 20.2398C58.412 18.1706 57.8577 16.2073 57.2415 14.3701C58.199 13.4577 58.7975 12.1719 58.7975 10.7481C58.7975 7.98801 56.5519 5.74262 53.792 5.74262C53.6111 5.74262 53.4326 5.75272 53.2566 5.77158C52.8511 5.15632 52.4351 4.58488 52.0078 4.06391C49.7961 1.36727 47.3544 0 44.7499 0C42.1455 0 39.7039 1.36727 37.4924 4.06391C35.5798 6.39616 33.8805 9.68196 32.4418 13.8297C31.7515 15.82 31.1364 17.9669 30.5991 20.2398C28.3621 19.5687 26.1951 19.0277 24.1263 18.6306C19.8148 17.8025 16.1197 17.6313 13.1436 18.1216C9.70253 18.6885 7.29752 20.1196 5.99539 22.375C4.69326 24.6305 4.6565 27.4289 5.88606 30.6924C6.94951 33.5149 8.94537 36.6293 11.8182 39.9492C13.1967 41.5422 14.7486 43.1483 16.4482 44.7501C15.4288 45.7107 14.4621 46.673 13.555 47.633C13.0876 47.4883 12.591 47.41 12.0765 47.41C9.31643 47.41 7.07104 49.6556 7.07104 52.4154C7.07104 53.356 7.33219 54.2366 7.78515 54.989C6.98113 56.3117 6.34607 57.5872 5.88606 58.8078C4.65631 62.0713 4.69326 64.8695 5.99539 67.125C7.29752 69.3804 9.70253 70.8115 13.1436 71.3784C14.248 71.5603 15.4513 71.6512 16.7484 71.6512C18.9468 71.6512 21.4148 71.3902 24.1261 70.8694C26.195 70.4721 28.3619 69.9313 30.5989 69.2602C31.1362 71.5333 31.7513 73.6802 32.4416 75.6705C33.8803 79.8182 35.5796 83.1038 37.4922 85.4363C39.7037 88.1329 42.1455 89.5002 44.7499 89.5002C47.3544 89.5002 49.7961 88.1329 52.0076 85.4363C53.9202 83.104 55.6195 79.8182 57.0584 75.6705C57.7487 73.6802 58.3638 71.5333 58.9011 69.2602C60.8715 69.8513 62.7871 70.3412 64.6293 70.7208C65.1413 72.9407 67.1326 74.6013 69.5058 74.6013C71.5483 74.6013 73.308 73.371 74.0853 71.6131C74.8815 71.5715 75.6419 71.4961 76.3564 71.3784C79.7975 70.8115 82.2025 69.3804 83.5046 67.125C84.8067 64.8695 84.8435 62.0713 83.614 58.8078C82.5507 55.9854 80.5548 52.8709 77.682 49.551ZM66.0922 22.3718C73.427 20.9632 78.7028 21.6767 80.2055 24.2799C81.7084 26.883 79.6881 31.8088 74.8012 37.4564C73.4425 39.0265 71.9043 40.6125 70.2109 42.1956C67.4705 39.8404 64.4293 37.5152 61.1583 35.2767C60.8551 31.3248 60.3621 27.5285 59.6928 23.9776C61.9105 23.3025 64.0531 22.7634 66.0922 22.3718ZM51.2284 55.9708C49.0696 57.2171 46.9035 58.3815 44.7501 59.4569C42.5965 58.3815 40.4306 57.2171 38.2718 55.9708C36.1131 54.7244 34.0216 53.4307 32.0136 52.1034C31.8682 49.7007 31.7936 47.2427 31.7936 44.7499C31.7936 42.2571 31.8682 39.7991 32.0136 37.3964C34.0216 36.0691 36.1131 34.7756 38.2718 33.529C40.4306 32.2827 42.5967 31.1183 44.7501 30.0429C46.9037 31.1183 49.0696 32.2827 51.2284 33.529C53.3871 34.7754 55.4786 36.0691 57.4866 37.3964C57.632 39.7991 57.7066 42.2571 57.7066 44.7499C57.7066 47.2427 57.632 49.7007 57.4866 52.1034C55.4786 53.4309 53.3873 54.7244 51.2284 55.9708ZM57.0959 56.8841C56.8295 59.4566 56.4776 61.9422 56.0449 64.3134C53.7751 63.5026 51.4465 62.5645 49.0854 61.509C50.4354 60.7939 51.7861 60.0476 53.1332 59.2701C54.4802 58.4924 55.8018 57.6958 57.0959 56.8841ZM40.4146 61.509C38.0535 62.5645 35.7249 63.5026 33.4551 64.3134C33.0226 61.9423 32.6706 59.4566 32.4041 56.8841C33.6984 57.6958 35.0199 58.4924 36.3668 59.2701C37.7139 60.0476 39.0646 60.7939 40.4146 61.509ZM28.0685 49.3748C25.974 47.8578 23.9974 46.3101 22.1602 44.7499C23.9974 43.1897 25.9742 41.642 28.0685 40.125C28.0127 41.6517 27.9838 43.1946 27.9838 44.7499C27.9838 46.3052 28.0129 47.8483 28.0685 49.3748ZM32.4041 32.6159C32.6706 30.0436 33.0224 27.5578 33.4551 25.1865C35.7249 25.9974 38.0535 26.9355 40.4146 27.991C39.0646 28.7061 37.7139 29.4524 36.3668 30.2299C35.0199 31.0076 33.6984 31.8044 32.4041 32.6159ZM49.0854 27.991C51.4465 26.9355 53.7751 25.9974 56.0449 25.1865C56.4774 27.5577 56.8295 30.0434 57.0959 32.6159C55.8016 31.8042 54.4801 31.0076 53.1332 30.2299C51.7863 29.4524 50.4356 28.7061 49.0854 27.991ZM61.4315 40.1252C63.526 41.6422 65.5026 43.1899 67.3398 44.7501C65.5026 46.3103 63.5258 47.858 61.4315 49.375C61.4873 47.8483 61.5162 46.3054 61.5162 44.7501C61.5162 43.1948 61.4873 41.6519 61.4315 40.1252ZM36.0409 15.0781C38.4884 8.02211 41.7441 3.80962 44.7499 3.80962C46.4501 3.80962 48.2304 5.15842 49.899 7.60629C49.2037 8.46593 48.7862 9.55891 48.7862 10.7481C48.7862 13.4729 50.975 15.6947 53.6867 15.7511C54.2749 17.5231 54.8031 19.4205 55.2681 21.423C51.8583 22.6189 48.3241 24.0899 44.7499 25.8033C41.1757 24.0899 37.6415 22.6189 34.2317 21.423C34.7561 19.1651 35.3605 17.0399 36.0409 15.0781ZM14.6989 37.4564C9.81187 31.8088 7.79163 26.883 9.29452 24.2799C10.2892 22.557 12.9365 21.6619 16.7399 21.6619C18.6828 21.6619 20.9278 21.8956 23.4078 22.3718C25.4469 22.7634 27.5895 23.3025 29.8072 23.9774C29.1379 27.5283 28.6449 31.3246 28.3417 35.2765C25.0707 37.5151 22.0297 39.8403 19.2891 42.1954C17.5959 40.6125 16.0576 39.0265 14.6989 37.4564ZM23.408 67.1282C16.0737 68.537 10.7976 67.8234 9.29471 65.2201C8.28078 63.4641 8.87261 60.6501 10.8637 57.2716C11.2523 57.3687 11.6582 57.4209 12.0765 57.4209C14.8366 57.4209 17.082 55.1753 17.082 52.4152C17.082 51.5676 16.8694 50.7689 16.496 50.0683C17.3719 49.1485 18.3035 48.226 19.2893 47.3043C22.0297 49.6594 25.0709 51.9844 28.3417 54.2231C28.6449 58.1752 29.1379 61.9713 29.8072 65.5222C27.5897 66.1975 25.4471 66.7366 23.408 67.1282ZM53.4591 74.4219C51.0116 81.4779 47.7559 85.6904 44.7501 85.6904C41.7443 85.6904 38.4886 81.4779 36.0411 74.4219C35.3607 72.4601 34.7563 70.3351 34.2319 68.077C37.6417 66.8811 41.1759 65.41 44.7501 63.6967C48.3243 65.41 51.8585 66.8811 55.2683 68.077C54.7439 70.3351 54.1395 72.4601 53.4591 74.4219ZM80.2055 65.2201C79.3394 66.7204 77.2182 67.5916 74.1737 67.792C73.4482 65.9209 71.63 64.59 69.5056 64.59C67.7124 64.59 66.1371 65.5384 65.2531 66.9594C63.4677 66.5867 61.6084 66.1055 59.6928 65.5224C60.3621 61.9715 60.8551 58.1752 61.1583 54.2233C64.4293 51.9848 67.4703 49.6597 70.2107 47.3044C71.9041 48.8875 73.4423 50.4735 74.801 52.0436C79.6881 57.6914 81.7084 62.617 80.2055 65.2201Z" fill="white"/>
<path d="M44.7499 36.8453C40.3913 36.8453 36.8453 40.3913 36.8453 44.7501C36.8453 49.1089 40.3913 52.6549 44.7499 52.6549C49.1085 52.6549 52.6547 49.1089 52.6547 44.7501C52.6547 40.3913 49.1087 36.8453 44.7499 36.8453ZM44.7499 48.845C42.492 48.845 40.655 47.008 40.655 44.7499C40.655 42.4917 42.492 40.6547 44.7499 40.6547C47.0079 40.6547 48.8451 42.4917 48.8451 44.7499C48.8451 47.008 47.0081 48.845 44.7499 48.845Z" fill="white"/>
</g>
<defs>
<clipPath id="clip0">
<rect width="89.5" height="89.5" fill="white"/>
</clipPath>
</defs>
</svg>
